<?xml version="1.0" standalone="no"?>
<!DOCTYPE svg PUBLIC "-//W3C//DTD SVG 20010904//EN"
 "http://www.w3.org/TR/2001/REC-SVG-20010904/DTD/svg10.dtd">
<svg version="1.0" xmlns="http://www.w3.org/2000/svg"
 width="120.000000pt" height="120.000000pt" viewBox="0 0 120.000000 120.000000"
 preserveAspectRatio="xMidYMid meet">
<metadata>
Created by potrace 1.14, written by Peter Selinger 2001-2017
</metadata>
<g transform="translate(0.000000,120.000000) scale(0.100000,-0.100000)"
fill="#000000" stroke="none">
<path d="M668 1149 c-66 -45 -77 -70 -77 -174 l0 -69 22 26 c12 14 36 33 53
42 48 23 66 60 69 138 1 37 0 70 -4 72 -3 1 -31 -14 -63 -35z"/>
<path d="M229 918 c-7 -232 11 -352 70 -482 38 -84 78 -141 143 -205 50 -49
154 -121 175 -121 5 0 35 18 65 40 158 113 275 363 283 605 2 82 -9 202 -20
214 -3 2 -37 -8 -77 -22 -40 -15 -95 -31 -122 -37 -131 -29 -300 -15 -430 34
-37 14 -72 26 -77 26 -5 0 -10 -24 -10 -52z"/>
<path d="M207 380 c3 -11 9 -23 14 -26 15 -9 10 -44 -6 -50 -24 -10 -17 -20
25 -37 44 -17 51 -38 20 -64 -16 -14 -20 -30 -20 -79 0 -61 0 -61 38 -78 43
-19 63 -24 157 -36 74 -9 359 -6 410 5 131 27 142 37 140 116 -1 45 -6 64 -18
71 -10 5 -17 19 -17 32 0 18 9 25 41 35 l42 13 -21 20 c-21 21 -21 21 -1 60
18 36 15 49 -7 29 -5 -5 -33 -16 -61 -26 l-53 -17 0 -47 c0 -26 -4 -51 -9 -56
-6 -6 -11 -37 -13 -70 l-3 -60 -50 -7 c-118 -18 -424 -9 -451 12 -6 5 -10 31
-9 57 1 27 -3 59 -10 73 -7 14 -10 39 -8 57 3 24 -1 35 -19 47 -12 9 -31 16
-41 16 -10 0 -31 7 -46 15 -27 14 -29 13 -24 -5z"/>
</g>
</svg>
